<?xml version="1.0" standalone="no"?>
<!DOCTYPE svg PUBLIC "-//W3C//DTD SVG 20010904//EN"
 "http://www.w3.org/TR/2001/REC-SVG-20010904/DTD/svg10.dtd">
<svg version="1.0" xmlns="http://www.w3.org/2000/svg"
 width="795.000000pt" height="795.000000pt" viewBox="0 0 795.000000 795.000000"
 preserveAspectRatio="xMidYMid meet">
<metadata>
Created by potrace 1.11, written by Peter Selinger 2001-2013
</metadata>
<g transform="translate(0.000000,795.000000) scale(0.100000,-0.100000)"
fill="#000000" stroke="none">
<path d="M5139 7907 c-9 -17 -32 -41 -53 -51 l-36 -20 28 -12 c30 -12 71 -61
73 -86 0 -7 6 -2 12 12 16 35 47 66 75 74 30 10 28 19 -7 33 -20 7 -35 23 -45
47 -8 20 -19 36 -23 36 -4 0 -15 -15 -24 -33z"/>
<path d="M5586 7642 c-11 -19 -52 -93 -81 -147 -18 -33 -42 -78 -55 -100 -35
-61 -80 -144 -109 -200 -14 -27 -28 -52 -31 -55 -3 -3 -14 -23 -24 -45 -11
-22 -22 -42 -25 -45 -4 -3 -12 -17 -18 -32 -16 -35 2 -150 132 -863 19 -100
19 -105 0 -105 -23 0 -65 30 -65 46 0 8 -4 14 -9 14 -5 0 -11 10 -15 23 -5 20
-7 18 -26 -18 -12 -24 -34 -48 -55 -59 l-35 -19 27 -14 c32 -16 73 -62 74 -83
0 -8 6 -4 12 10 16 34 37 56 71 74 37 19 42 15 50 -31 4 -21 16 -85 27 -143
47 -251 119 -675 119 -701 0 -19 -6 -30 -20 -34 -11 -3 -20 -11 -20 -16 0 -5
-6 -9 -14 -9 -8 0 -16 -7 -20 -15 -3 -8 -12 -15 -19 -15 -8 0 -22 -9 -32 -20
-10 -11 -24 -20 -32 -20 -7 0 -13 -3 -13 -7 0 -5 -23 -21 -50 -38 -28 -16 -50
-33 -50 -37 0 -4 -6 -8 -14 -8 -30 0 -26 -34 10 -88 38 -58 36 -72 -13 -72
-18 0 -23 8 -33 58 -52 265 -129 396 -300 512 -4 3 -11 25 -15 50 -37 237
-138 427 -290 545 -21 17 -44 35 -50 40 -44 40 -174 97 -274 121 -125 30 -422
18 -656 -26 -144 -28 -371 -121 -433 -177 -7 -7 -17 -13 -22 -13 -5 0 -20 -11
-34 -25 -14 -14 -29 -25 -33 -25 -5 0 -17 -11 -27 -25 -12 -16 -29 -25 -45
-25 -24 0 -246 69 -270 84 -9 6 -1 35 34 111 7 17 25 57 40 90 15 33 35 78 45
100 44 97 60 135 60 143 0 12 -513 527 -538 541 -10 5 -155 21 -323 35 -437
37 -432 37 -450 42 -34 9 -68 -15 -89 -63 -25 -55 -47 -104 -83 -183 -29 -64
-73 -162 -92 -205 -42 -94 -68 -151 -89 -197 -77 -167 -79 -176 -52 -204 6 -6
18 -22 26 -34 8 -13 23 -30 33 -39 9 -8 17 -21 17 -27 0 -7 7 -14 15 -18 8 -3
15 -10 15 -16 0 -9 9 -21 72 -94 15 -17 28 -34 28 -37 0 -3 10 -17 23 -31 39
-45 57 -68 57 -76 0 -4 9 -14 20 -22 11 -8 20 -18 20 -22 0 -4 8 -17 18 -27 9
-11 22 -26 27 -33 55 -72 81 -104 87 -106 5 -2 8 -10 8 -18 0 -8 7 -17 15 -20
8 -4 15 -12 15 -20 0 -8 4 -14 9 -14 5 0 9 -37 9 -82 -1 -76 3 -118 18 -203 3
-16 19 -76 36 -132 29 -96 30 -106 19 -155 -41 -175 -34 -352 21 -543 32 -110
32 -117 6 -148 -13 -15 -27 -27 -30 -27 -4 0 -20 -12 -36 -27 -16 -16 -46 -41
-66 -58 -57 -46 -106 -94 -106 -103 0 -4 -9 -14 -20 -22 -11 -8 -20 -20 -20
-26 0 -7 -6 -19 -13 -26 -18 -18 -92 -210 -111 -288 -49 -201 -41 -413 24
-581 26 -69 42 -101 58 -117 6 -7 12 -19 12 -27 0 -7 7 -15 15 -19 8 -3 15
-12 15 -20 0 -7 7 -16 15 -20 8 -3 15 -10 15 -16 0 -12 118 -130 131 -130 5 0
9 -3 9 -7 0 -5 25 -24 55 -43 30 -19 54 -38 55 -42 0 -12 -43 -53 -90 -85 -57
-38 -138 -75 -213 -99 -70 -22 -85 -42 -60 -81 73 -113 237 -154 438 -110 91
20 240 74 256 93 6 8 17 14 24 14 7 0 15 7 19 15 3 8 12 15 21 15 8 0 15 4 15
9 0 4 14 22 30 40 32 33 47 32 84 -4 13 -14 13 -20 1 -56 -15 -40 -20 -53 -67
-144 l-25 -49 -364 -72 c-200 -39 -451 -88 -558 -108 -191 -37 -233 -51 -246
-84 -4 -9 -9 -84 -12 -167 -2 -82 -6 -155 -8 -161 -2 -6 -38 -15 -82 -19 -43
-4 -91 -8 -108 -10 -77 -8 -171 -18 -184 -18 -11 0 -13 -64 -8 -399 l5 -399
36 -34 c26 -24 59 -41 119 -58 130 -39 166 -47 262 -61 83 -13 96 -12 168 6
l78 20 24 -24 c34 -34 53 -48 64 -48 5 0 11 -3 13 -7 4 -11 96 -51 143 -62 55
-14 111 -16 170 -7 45 6 54 5 79 -17 35 -30 137 -61 287 -86 63 -11 126 -24
141 -30 14 -5 61 -17 105 -27 43 -9 94 -20 113 -24 19 -4 81 -17 138 -29 57
-11 147 -32 200 -45 53 -13 140 -32 192 -41 52 -9 133 -25 180 -36 176 -43
207 -47 280 -44 71 3 169 34 178 57 6 15 33 8 55 -13 12 -12 42 -30 67 -41 78
-36 252 -25 379 23 13 6 83 19 154 29 132 20 233 45 254 62 7 6 23 8 35 5 12
-4 74 5 138 19 63 15 135 30 160 36 25 5 86 18 135 29 50 11 99 21 110 24 11
2 38 20 59 40 42 38 58 42 106 22 36 -16 63 -12 310 42 128 28 403 87 515 110
145 31 486 103 565 121 52 12 167 37 255 55 200 42 195 40 196 79 1 17 2 45 4
61 9 91 7 335 -4 376 -11 38 -9 66 8 181 26 171 27 203 4 204 -62 3 -484 35
-510 39 l-33 6 -1 82 c-2 127 -6 172 -18 195 -13 25 -74 44 -198 63 -46 7 -87
15 -91 18 -5 3 -12 69 -15 146 -7 154 -19 200 -68 246 -27 25 -40 69 -21 69 4
0 13 20 20 45 25 93 -28 187 -121 219 -59 20 -65 20 -123 0 -66 -22 -109 -71
-125 -142 -8 -36 16 -132 33 -132 17 0 7 -29 -23 -61 -44 -47 -57 -87 -65
-197 -3 -53 -8 -98 -9 -100 -5 -6 -146 22 -159 32 -7 6 -32 67 -56 136 -23 69
-67 187 -96 263 -52 134 -57 157 -31 157 15 0 159 54 207 78 19 9 43 25 54 35
11 9 25 17 32 17 6 0 22 11 35 25 13 13 28 25 32 25 12 0 77 68 77 80 0 5 4
10 8 10 5 0 24 30 42 67 26 55 33 81 35 141 1 41 -2 93 -7 116 -11 49 -63 159
-83 176 -8 7 -15 19 -15 27 0 7 -7 16 -15 19 -8 4 -15 10 -15 15 0 12 -224
229 -236 229 -10 0 -104 101 -104 113 0 7 12 21 27 32 15 11 39 32 54 48 14
15 29 27 33 27 3 0 24 17 45 38 125 119 142 133 161 127 11 -4 20 -10 20 -15
0 -12 57 -70 67 -70 4 0 17 20 27 43 11 23 22 44 26 47 3 3 23 41 45 85 21 44
41 82 45 85 20 18 38 74 34 102 -6 32 -3 37 46 95 5 7 10 16 10 22 0 5 4 11 8
13 16 6 72 135 74 169 1 19 -2 49 -6 68 l-8 34 39 -5 38 -5 37 150 c21 83 36
152 35 154 -2 1 -66 21 -143 44 -76 23 -142 44 -146 48 -3 3 -9 186 -13 406
-3 220 -8 436 -10 480 -2 44 -6 249 -10 455 -6 404 -12 584 -21 613 -5 17 -17
32 -74 96 -8 9 -28 35 -44 56 -17 22 -38 47 -48 56 -10 9 -18 19 -18 23 0 4
-10 17 -22 30 -13 12 -32 35 -43 50 -11 15 -29 38 -40 51 -11 12 -33 39 -50
60 -16 20 -39 47 -50 60 -11 13 -27 32 -34 44 -17 23 -38 34 -45 23z"/>
<path d="M6354 7105 c-9 -19 -23 -35 -30 -35 -8 0 -14 -4 -14 -10 0 -5 -12
-13 -27 -16 -26 -7 -26 -7 15 -26 25 -12 46 -31 54 -49 14 -31 28 -38 28 -14
0 8 5 15 10 15 6 0 10 7 10 15 0 8 5 15 11 15 6 0 17 6 25 14 7 8 19 17 26 20
10 5 10 7 -1 12 -24 11 -71 64 -71 79 0 27 -19 16 -36 -20z"/>
<path d="M4806 6989 c-20 -45 -66 -99 -85 -99 -6 0 -11 -4 -11 -9 0 -5 -11
-12 -25 -15 -30 -8 -33 -26 -5 -26 11 0 28 -9 37 -20 10 -11 23 -20 30 -20 6
0 15 -9 18 -20 3 -11 10 -20 14 -20 5 0 14 -13 21 -30 16 -38 25 -38 38 0 12
32 54 80 72 80 5 0 10 4 10 9 0 5 16 15 36 23 l36 15 -33 13 c-37 15 -89 62
-89 79 0 6 -4 11 -9 11 -4 0 -15 16 -22 36 l-14 37 -19 -44z"/>
<path d="M3838 6792 c-16 -9 -28 -20 -28 -25 0 -14 -159 -167 -174 -167 -8 0
-68 27 -135 61 -174 87 -169 94 -165 -227 2 -174 5 -227 20 -306 8 -41 39 -42
145 -4 232 83 539 113 776 76 113 -18 118 -6 88 202 -13 87 -26 183 -30 215
-7 60 -23 155 -28 159 -1 1 -14 5 -28 9 -22 6 -34 -1 -76 -44 -28 -28 -55 -51
-61 -51 -5 0 -12 -7 -16 -15 -8 -22 -37 -18 -71 11 -16 14 -40 34 -53 45 -12
10 -27 19 -32 19 -6 0 -10 4 -10 8 0 8 -76 52 -88 52 -4 0 -19 -8 -34 -18z"/>
<path d="M6360 5846 c-6 -19 -20 -38 -31 -41 -10 -4 -19 -10 -19 -15 0 -4 -12
-11 -27 -15 l-28 -7 33 -14 c36 -15 62 -37 62 -52 0 -5 7 -15 15 -22 12 -10
16 -9 21 6 7 20 63 74 77 74 18 0 4 19 -23 30 -16 7 -30 16 -30 21 0 5 -9 23
-19 40 l-19 31 -12 -36z"/>
<path d="M1530 4397 c-3 -3 -25 -7 -50 -10 -55 -6 -114 -26 -200 -69 -70 -36
-83 -44 -108 -70 -9 -10 -20 -18 -25 -18 -10 0 -74 -67 -102 -105 -11 -16 -25
-33 -31 -39 -14 -15 -68 -130 -84 -180 -26 -82 -12 -266 21 -266 4 0 11 -9 14
-20 3 -11 11 -20 16 -20 6 0 16 -6 24 -13 7 -7 38 -19 69 -26 48 -11 64 -10
112 4 54 16 101 50 122 91 6 11 22 62 37 114 25 88 66 176 103 222 40 48 121
128 131 128 6 0 11 4 11 8 0 5 31 28 69 52 86 54 99 75 76 121 -20 38 -30 49
-65 71 -24 16 -130 34 -140 25z"/>
<path d="M5892 3890 c-56 -12 -95 -36 -117 -72 -14 -25 -15 -34 -5 -59 7 -16
17 -29 22 -29 5 0 28 -9 50 -20 23 -11 48 -20 55 -20 7 0 13 -4 13 -9 0 -5 15
-14 33 -20 30 -10 167 -129 167 -145 0 -5 14 -24 50 -65 8 -9 32 -25 52 -34
30 -14 41 -15 62 -5 32 14 49 70 41 131 -7 52 -64 170 -105 217 -16 19 -34 40
-38 45 -62 71 -177 106 -280 85z"/>
</g>
</svg>
